<?xml version="1.0" encoding="UTF-8"?>
<svg width="166px" height="60px" viewBox="0 0 166 60" version="1.1" xmlns="http://www.w3.org/2000/svg" xmlns:xlink="http://www.w3.org/1999/xlink">
    <title>NG-256px-negro Copy</title>
    <g id="CABECERAS-NUEVAS" stroke="none" stroke-width="1" fill="none" fill-rule="evenodd">
        <g id="Mobile_NG_02" transform="translate(-44.000000, -51.000000)" fill-rule="nonzero">
            <g id="NG-256px-negro-Copy" transform="translate(44.000000, 51.000000)">
                <g id="Layer_1">
                    <path d="M0,48 L0,0 L34.1012472,0 L34.1012472,48 L0,48 Z M29.1078503,43.0922693 L29.1078503,4.78802993 L4.87160675,4.78802993 L4.87160675,43.0922693 L29.1078503,43.0922693 Z" id="Shape" fill="#FFCD00"></path>
                    <g id="Group" transform="translate(41.774028, 4.548628)" fill="#000000">
                        <path d="M14.8584006,16.9975062 L12.7879677,16.9975062 C9.98679384,13.1670823 7.30741012,9.33665835 4.50623624,5.02743142 L4.50623624,16.9975062 L2.07043287,16.9975062 L2.07043287,0.359102244 L4.14086574,0.359102244 C6.94203962,4.18952618 9.62142333,8.01995012 12.4225972,12.2094763 L12.4225972,0.359102244 L14.7366104,0.359102244 L14.7366104,16.9975062 L14.8584006,16.9975062 Z" id="Shape"></path>
                        <path d="M20.3389582,10.4139651 C21.0696992,8.25935162 21.67865,6.2244389 22.2876009,3.59102244 C23.0183419,6.2244389 23.6272927,8.13965087 24.2362436,10.4139651 L20.3389582,10.4139651 Z M21.4350697,0.359102244 L15.5891416,16.9975062 L18.1467351,16.9975062 L19.6082172,12.4488778 L24.7234043,12.4488778 L26.0630961,16.9975062 L29.3514307,16.9975062 L23.8708731,0.359102244 L21.4350697,0.359102244 Z" id="Shape"></path>
                        <polygon id="Shape" points="32.0308144 16.9975062 32.0308144 2.51371571 27.6463683 2.51371571 27.6463683 0.359102244 39.4600147 0.359102244 39.4600147 2.63341646 34.9537784 2.63341646 34.9537784 16.9975062"></polygon>
                        <polygon id="Shape" points="40.3125459 16.9975062 40.3125459 0.359102244 43.2355099 0.359102244 43.2355099 16.9975062"></polygon>
                        <path d="M52.2479824,14.8428928 C49.2032282,14.8428928 48.1071167,11.6109726 48.1071167,8.37905237 C48.1071167,5.26683292 49.3250183,2.39401496 52.2479824,2.39401496 C55.1709464,2.39401496 56.3888481,5.38653367 56.3888481,8.37905237 C56.3888481,11.6109726 55.2927366,14.8428928 52.2479824,14.8428928 Z M52.2479824,17.2369077 C56.6324285,17.2369077 59.4336023,13.4064838 59.4336023,8.37905237 C59.4336023,3.71072319 56.3888481,0 52.2479824,0 C48.1071167,0 45.0623624,3.71072319 45.0623624,8.37905237 C45.0623624,13.4064838 47.7417461,17.2369077 52.2479824,17.2369077 Z" id="Shape"></path>
                        <path d="M73.9266324,16.9975062 L71.8561996,16.9975062 C69.0550257,13.1670823 66.375642,9.33665835 63.5744681,5.02743142 L63.5744681,16.9975062 L61.2604549,16.9975062 L61.2604549,0.359102244 L63.3308877,0.359102244 C66.1320616,4.18952618 68.8114453,8.01995012 71.6126192,12.2094763 L71.6126192,0.359102244 L73.9266324,0.359102244 L73.9266324,16.9975062 Z" id="Shape"></path>
                        <path d="M79.40719,10.4139651 C80.137931,8.25935162 80.7468819,6.2244389 81.3558327,3.59102244 C82.0865737,6.2244389 82.6955246,8.13965087 83.3044754,10.4139651 L79.40719,10.4139651 Z M80.6250917,0.359102244 L74.6573734,16.9975062 L77.214967,16.9975062 L78.676449,12.4488778 L83.7916361,12.4488778 L85.131328,16.9975062 L88.4196625,16.9975062 L83.0608951,0.359102244 L80.6250917,0.359102244 Z" id="Shape"></path>
                        <polygon id="Shape" points="89.2721937 0.359102244 92.1951577 0.359102244 92.1951577 14.8428928 97.9192957 14.8428928 97.9192957 16.9975062 89.2721937 16.9975062"></polygon>
                        <path d="M13.0315481,30.882793 L13.0315481,37.8254364 C11.4482759,38.4239401 9.86500367,38.9027431 8.15994131,38.9027431 C3.16654439,38.9027431 0,35.0723192 0,30.1645885 C0,25.6159601 3.16654439,21.6658354 8.28173147,21.6658354 C9.86500367,21.6658354 11.4482759,22.2643392 12.4225972,22.9825436 L11.4482759,25.0174564 C10.7175348,24.5386534 9.49963316,24.1795511 8.40352164,24.1795511 C5.35876742,24.1795511 3.16654439,26.5735661 3.16654439,30.40399 C3.16654439,34.3541147 5.60234776,36.7481297 8.03815114,36.7481297 C8.76889215,36.7481297 9.49963316,36.6284289 10.108584,36.3890274 L10.108584,31.2418953 L13.0315481,31.2418953 L13.0315481,30.882793 Z" id="Shape"></path>
                        <polygon id="Shape" points="23.3837124 24.0598504 18.5121056 24.0598504 18.5121056 28.6084788 23.2619222 28.6084788 23.2619222 30.882793 18.5121056 30.882793 18.5121056 36.2693267 24.2362436 36.2693267 24.2362436 38.5436409 15.5891416 38.5436409 15.5891416 21.9052369 23.3837124 21.9052369"></polygon>
                        <path d="M32.3961849,36.5087282 C29.3514307,36.5087282 28.2553191,33.276808 28.2553191,30.0448878 C28.2553191,26.9326683 29.4732208,24.0598504 32.3961849,24.0598504 C35.3191489,24.0598504 36.5370506,27.0523691 36.5370506,30.0448878 C36.5370506,33.1571072 35.4409391,36.5087282 32.3961849,36.5087282 Z M32.3961849,38.9027431 C36.780631,38.9027431 39.5818048,35.0723192 39.5818048,30.0448878 C39.5818048,25.3765586 36.5370506,21.6658354 32.3961849,21.6658354 C28.2553191,21.6658354 25.2105649,25.3765586 25.2105649,30.0448878 C25.2105649,34.9526185 28.0117388,38.9027431 32.3961849,38.9027431 Z" id="Shape"></path>
                        <path d="M53.5876742,30.882793 L53.5876742,37.8254364 C52.0044021,38.4239401 50.4211299,38.9027431 48.7160675,38.9027431 C43.7226706,38.9027431 40.5561262,35.0723192 40.5561262,30.1645885 C40.5561262,25.6159601 43.7226706,21.6658354 48.8378577,21.6658354 C50.4211299,21.6658354 52.0044021,22.2643392 52.9787234,22.9825436 L52.0044021,24.8977556 C51.273661,24.4189526 50.0557594,24.0598504 48.9596478,24.0598504 C45.9148936,24.0598504 43.7226706,26.4538653 43.7226706,30.2842893 C43.7226706,34.234414 46.158474,36.6284289 48.5942773,36.6284289 C49.3250183,36.6284289 50.0557594,36.5087282 50.6647102,36.2693267 L50.6647102,31.1221945 L53.5876742,31.1221945 L53.5876742,30.882793 Z" id="Shape"></path>
                        <path d="M59.190022,24.0598504 L60.5297139,24.0598504 C62.2347762,24.0598504 63.2090976,25.0174564 63.2090976,26.8129676 C63.2090976,29.0872818 61.8694057,30.0448878 60.4079237,30.1645885 C60.1643434,30.1645885 59.4336023,30.1645885 59.190022,30.2842893 L59.190022,24.0598504 Z M66.4974321,38.5436409 L63.0873074,31.6009975 C64.9141599,30.6433915 66.0102715,28.6084788 66.0102715,26.6932668 C66.0102715,23.4613466 63.9398386,21.9052369 60.7732942,21.9052369 L56.267058,21.9052369 L56.267058,38.5436409 L59.190022,38.5436409 L59.190022,32.1995012 L60.4079237,32.1995012 L63.2090976,38.5436409 L66.4974321,38.5436409 Z" id="Shape"></path>
                        <path d="M71.3690389,31.9600998 C72.0997799,29.8054863 72.7087307,27.7705736 73.3176816,25.1371571 C74.0484226,27.7705736 74.6573734,29.6857855 75.2663243,31.9600998 L71.3690389,31.9600998 Z M72.4651504,21.9052369 L66.6192223,38.5436409 L69.1768158,38.5436409 L70.6382979,33.9950125 L75.753485,33.9950125 L77.0931768,38.5436409 L80.3815114,38.5436409 L75.0227439,21.9052369 L72.4651504,21.9052369 Z" id="Shape"></path>
                        <path d="M84.1570066,38.5436409 L81.2340426,38.5436409 L81.2340426,21.9052369 L85.7402788,21.9052369 C89.0286134,21.9052369 90.9772561,23.4613466 90.9772561,26.6932668 C90.9772561,29.5660848 88.9068232,32.319202 85.3749083,32.319202 L84.0352164,32.319202 L84.0352164,30.1645885 C84.1570066,30.1645885 85.0095378,30.1645885 85.2531181,30.0448878 C86.59281,29.925187 88.054292,28.967581 88.054292,26.6932668 C88.054292,25.0174564 87.0799707,23.9401496 85.3749083,23.9401496 L84.0352164,23.9401496 L84.0352164,38.5436409 L84.1570066,38.5436409 Z" id="Shape"></path>
                        <polygon id="Shape" points="104.495965 38.5436409 101.573001 38.5436409 101.573001 30.5236908 95.4834923 30.5236908 95.4834923 38.5436409 92.5605282 38.5436409 92.5605282 21.9052369 95.4834923 21.9052369 95.4834923 28.3690773 101.573001 28.3690773 101.573001 22.0249377 104.495965 22.0249377"></polygon>
                        <polygon id="Shape" points="107.297139 38.5436409 107.297139 21.9052369 110.220103 21.9052369 110.220103 38.5436409"></polygon>
                        <path d="M123.251651,24.8977556 C122.52091,24.4189526 121.424798,23.9401496 120.206897,23.9401496 C117.283933,23.9401496 115.091709,26.3341646 115.091709,30.1645885 C115.091709,34.1147132 117.527513,36.5087282 120.328687,36.5087282 C121.424798,36.5087282 122.52091,36.1496259 123.251651,35.6708229 L124.104182,37.7057357 C123.251651,38.3042394 121.668379,38.9027431 120.328687,38.9027431 C115.33529,38.9027431 112.168745,35.0723192 112.168745,30.1645885 C112.168745,25.6159601 115.33529,21.6658354 120.328687,21.6658354 C121.790169,21.6658354 123.251651,22.2643392 124.225972,22.9825436 L123.251651,24.8977556 Z" id="Shape"></path>
                    </g>
                </g>
                <g id="Group" transform="translate(44.000000, 45.000000)" fill="#000000">
                    <polygon id="Shape" points="4.94326241 5 1.80851064 5 1.80851064 8.04878049 4.82269504 8.04878049 4.82269504 9.51219512 1.80851064 9.51219512 1.80851064 13.1707317 5.54609929 13.1707317 5.54609929 14.6341463 0 14.6341463 0 3.53658537 5.06382979 3.53658537 5.06382979 5"></polygon>
                    <path d="M12.5390071,5.48780488 C12.177305,5.12195122 11.5744681,4.87804878 11.0921986,4.87804878 C10.3687943,4.87804878 9.88652482,5.36585366 9.88652482,6.09756098 C9.88652482,6.82926829 10.4893617,7.43902439 11.5744681,8.41463415 C12.7801418,9.63414634 13.5035461,10.4878049 13.5035461,11.9512195 C13.5035461,13.2926829 12.4184397,15 10.248227,15 C9.28368794,15 8.19858156,14.6341463 7.4751773,13.902439 L8.19858156,12.6829268 C8.68085106,13.1707317 9.28368794,13.5365854 10.1276596,13.5365854 C10.8510638,13.5365854 11.5744681,13.0487805 11.5744681,11.9512195 C11.5744681,10.7317073 10.3687943,9.87804878 9.5248227,9.26829268 C8.56028369,8.41463415 7.83687943,7.68292683 7.83687943,6.2195122 C7.83687943,4.75609756 9.04255319,3.53658537 10.7304965,3.53658537 C11.8156028,3.53658537 12.6595745,4.02439024 13.141844,4.51219512 L12.5390071,5.48780488 Z" id="Shape"></path>
                    <path d="M17.2411348,14.6341463 L15.3120567,14.6341463 L15.3120567,3.53658537 L18.2056738,3.53658537 C20.2553191,3.53658537 21.5815603,4.63414634 21.5815603,6.70731707 C21.5815603,8.53658537 20.2553191,10.3658537 17.964539,10.3658537 L17.1205674,10.3658537 L17.1205674,9.02439024 C17.2411348,9.02439024 17.7234043,9.02439024 17.964539,9.02439024 C18.8085106,9.02439024 19.7730496,8.29268293 19.7730496,6.82926829 C19.7730496,5.73170732 19.1702128,5 18.0851064,5 L17.2411348,5 L17.2411348,14.6341463 Z" id="Shape"></path>
                    <path d="M27.3687943,3.53658537 L30.8652482,14.6341463 L28.8156028,14.6341463 L27.9716312,11.5853659 L24.7163121,11.5853659 L23.751773,14.6341463 L22.0638298,14.6341463 L25.8014184,3.53658537 L27.3687943,3.53658537 Z M27.6099291,10.2439024 C27.248227,8.7804878 26.7659574,7.43902439 26.4042553,5.73170732 C26.0425532,7.43902439 25.5602837,8.7804878 25.0780142,10.2439024 L27.6099291,10.2439024 Z" id="Shape"></path>
                    <path d="M40.6312057,14.6341463 L39.3049645,14.6341463 C37.4964539,12.0731707 35.6879433,9.51219512 34,6.70731707 L34,14.6341463 L32.5531915,14.6341463 L32.5531915,3.53658537 L33.7588652,3.53658537 C35.5673759,6.09756098 37.3758865,8.53658537 39.0638298,11.4634146 L39.0638298,3.53658537 L40.5106383,3.53658537 L40.5106383,14.6341463 L40.6312057,14.6341463 Z M39.4255319,0.731707317 C39.0638298,1.58536585 38.5815603,2.19512195 37.9787234,2.19512195 C37.6170213,2.19512195 37.2553191,1.95121951 37.0141844,1.70731707 C36.6524823,1.46341463 36.4113475,1.2195122 35.929078,1.2195122 C35.4468085,1.2195122 35.2056738,1.70731707 34.964539,2.19512195 L34.2411348,1.70731707 C34.7234043,0.609756098 35.2056738,0 35.929078,0 C36.2907801,0 36.6524823,0.243902439 37.0141844,0.487804878 C37.3758865,0.731707317 37.7375887,0.975609756 37.9787234,0.975609756 C38.3404255,0.975609756 38.5815603,0.487804878 38.822695,0.12195122 L39.4255319,0.731707317 Z" id="Shape"></path>
                    <path d="M47.5035461,3.53658537 L51,14.6341463 L48.9503546,14.6341463 L48.106383,11.5853659 L44.8510638,11.5853659 L43.8865248,14.6341463 L42.1985816,14.6341463 L45.9361702,3.53658537 L47.5035461,3.53658537 Z M47.7446809,10.2439024 C47.3829787,8.7804878 46.9007092,7.43902439 46.5390071,5.73170732 C46.177305,7.43902439 45.6950355,8.7804878 45.212766,10.2439024 L47.7446809,10.2439024 Z" id="Shape"></path>
                </g>
            </g>
        </g>
    </g>
</svg>